<svg xmlns="http://www.w3.org/2000/svg" width="20.815" height="20.882" viewBox="0 0 20.815 20.882">
  <g id="WA_Logo" transform="translate(-1 -0.9)">
    <g id="Group_182" data-name="Group 182" transform="translate(1 0.9)">
      <path id="Path_123" data-name="Path 123" d="M18.793,3.921A10.374,10.374,0,0,0,1.1,11.24a10.489,10.489,0,0,0,1.376,5.2L1,21.782l5.539-1.41a10.614,10.614,0,0,0,4.969,1.276h0A10.4,10.4,0,0,0,18.793,3.921ZM11.441,19.868h0a8.541,8.541,0,0,1-4.4-1.242l-.336-.2-3.256.839.906-3.156-.2-.336a8.909,8.909,0,0,1-1.309-4.6A8.578,8.578,0,1,1,20,11.24,8.526,8.526,0,0,1,11.441,19.868Zm4.734-6.446a12.435,12.435,0,0,0-1.813-.806c-.235-.1-.436-.134-.571.134s-.671.806-.806,1.007c-.134.134-.269.2-.571.034a6.325,6.325,0,0,1-2.081-1.309,5.554,5.554,0,0,1-1.41-1.813c-.134-.269-.034-.369.134-.537a1.764,1.764,0,0,0,.369-.47c.134-.134.134-.269.269-.436.134-.134.034-.336-.034-.47-.1-.134-.571-1.41-.806-1.947-.2-.537-.436-.436-.571-.436h-.47a.8.8,0,0,0-.671.336A3,3,0,0,0,6.237,8.89a4.973,4.973,0,0,0,1.074,2.686,12.353,12.353,0,0,0,4.4,3.928,15.683,15.683,0,0,0,1.477.571,3.893,3.893,0,0,0,1.611.1,2.478,2.478,0,0,0,1.746-1.242,2.239,2.239,0,0,0,.134-1.242A2.107,2.107,0,0,0,16.175,13.422Z" transform="translate(-1 -0.9)" fill="#2cb80e"/>
    </g>
  </g>
</svg>
